<svg preserveAspectRatio="none" width="15" height="15" viewBox="0 0 15 15" fill="none" xmlns="http://www.w3.org/2000/svg">
<path d="M7.2 0.3C3.2238 0.3 0 3.5238 0 7.5C0 11.4762 3.2238 14.7 7.2 14.7C11.1762 14.7 14.4 11.4762 14.4 7.5C14.4 3.5238 11.1762 0.3 7.2 0.3ZM12.1512 4.87734C12.315 4.87719 12.4781 4.88347 12.5297 4.89727C12.6059 4.91767 12.608 4.92924 12.5918 5.28984C12.5828 5.49384 12.5651 6.14379 12.5531 6.73359L12.532 7.80586H11.7703L11.7516 7.41211C11.7408 7.19611 11.7219 6.54733 11.7105 5.96953L11.6895 4.91953L11.7703 4.89844C11.8225 4.88464 11.9874 4.87749 12.1512 4.87734ZM3.18164 6.06328C3.39644 6.05143 3.61728 6.06578 3.76758 6.10898C4.16538 6.22358 4.47671 6.52537 4.64531 6.95977C4.74131 7.20697 4.77802 7.7948 4.71562 8.0918C4.61782 8.5586 4.27894 8.98136 3.88594 9.12656C3.63634 9.21956 3.10649 9.2505 2.86289 9.1875C2.29649 9.0411 1.95036 8.64182 1.83516 7.99922C1.68936 7.18802 2.00689 6.45669 2.62969 6.17109C2.75779 6.11229 2.96684 6.07513 3.18164 6.06328ZM6.29297 6.06562C6.57497 6.03802 7.06709 6.07694 7.28789 6.14414C7.44269 6.19094 7.44629 6.19615 7.43789 6.32695C7.43309 6.40075 7.40461 6.53289 7.37461 6.62109L7.3207 6.78281L7.08398 6.71602C6.92258 6.67042 6.76574 6.65374 6.59414 6.66094C6.28514 6.67474 6.19453 6.73653 6.19453 6.93633C6.19453 7.09593 6.24184 7.12612 6.77344 7.30312C7.18144 7.43932 7.31781 7.52311 7.44141 7.71211C7.61121 7.97131 7.61009 8.39765 7.43789 8.67305C7.22189 9.01865 6.83799 9.19997 6.28359 9.21797C6.08919 9.22457 5.8898 9.22228 5.8418 9.21328C5.7932 9.20488 5.64684 9.17185 5.51484 9.13945C5.27604 9.08125 5.27527 9.08042 5.29687 8.97422C5.33827 8.76842 5.41985 8.50529 5.44805 8.48789C5.46365 8.47829 5.55424 8.4925 5.64844 8.5207C5.89804 8.5951 6.25913 8.62138 6.42773 8.57578C6.65693 8.51458 6.7582 8.4166 6.7582 8.2582C6.7582 8.0788 6.66004 8.00572 6.24844 7.87852C5.60644 7.67992 5.41707 7.51585 5.36367 7.11445C5.33307 6.88525 5.39636 6.62754 5.52656 6.45234C5.67116 6.25794 5.99357 6.09502 6.29297 6.06562ZM8.19961 6.09609H9.01055L9.02109 7.1168C9.03129 8.0552 9.03832 8.14798 9.10312 8.27578C9.20992 8.48518 9.36041 8.55469 9.70781 8.55469C9.86621 8.55469 10.0035 8.54671 10.0125 8.53711C10.0389 8.50831 10.0705 7.55993 10.0711 6.80273L10.0723 6.09609H10.8375L10.8598 6.43711C10.8724 6.62431 10.8832 7.28962 10.8832 7.91602V9.05508L10.5574 9.13125C10.1896 9.21585 9.53902 9.24962 9.21562 9.19922C8.78362 9.13142 8.49006 8.92346 8.32266 8.56406L8.2207 8.34492L8.21016 7.22109L8.19961 6.09609ZM3.26602 6.68906C2.90602 6.68906 2.72856 6.88867 2.66016 7.37227C2.61456 7.69207 2.66302 8.12117 2.76562 8.31797C2.86762 8.51357 3.02798 8.60742 3.25898 8.60742C3.36278 8.60682 3.49324 8.58406 3.54844 8.55586C3.82264 8.41546 3.91866 8.13624 3.89766 7.53984C3.88626 7.21584 3.87067 7.13009 3.79687 6.98789C3.68527 6.77369 3.53542 6.68906 3.26602 6.68906ZM12.1582 8.29336C12.4912 8.29336 12.5456 8.30267 12.5672 8.35547C12.6014 8.43767 12.6002 9.11814 12.566 9.15234C12.53 9.18714 11.9522 9.20229 11.8172 9.17109L11.7117 9.14648L11.7023 8.76914C11.6957 8.52014 11.7058 8.37438 11.7328 8.34258C11.7634 8.30658 11.872 8.29336 12.1582 8.29336Z" fill="#FF66AA"/>
</svg>
