<svg preserveAspectRatio="none" width="15" height="12" viewBox="0 0 15 12" fill="none" xmlns="http://www.w3.org/2000/svg">
<path d="M5.83457 1.25391C5.72246 0.942258 5.60931 0.628029 5.60726 0.623915C5.55326 0.503058 5.42829 0.426943 5.29663 0.440315C5.21331 0.447 3.24206 0.616715 1.97897 1.63243C1.31863 2.24237 0 5.80843 0 8.89157C0 8.94609 0.0138857 8.99906 0.0411429 9.04637C0.951943 10.6458 3.43491 11.0644 4.00063 11.0824C4.00423 11.0829 4.00731 11.0829 4.0104 11.0829C4.11017 11.0829 4.20377 11.0351 4.26343 10.9544L4.87543 10.1253C3.86434 9.97157 3.68177 9.771 3.63909 9.73963C3.41074 9.57146 3.24206 9.33591 3.44674 9.03866C3.60411 8.80774 3.93429 8.73163 4.18731 8.86174C4.44651 8.9826 5.14029 9.3714 7.2 9.36111C9.24531 9.35494 10.1433 8.92654 10.1561 8.91729C10.4997 8.76249 10.7676 8.82626 10.9347 9.05563C11.1338 9.3678 10.9918 9.57917 10.7645 9.74683C10.7218 9.7782 10.6185 9.86614 9.53229 10.1233L10.1366 10.9539C10.1957 11.0351 10.2898 11.0824 10.3896 11.0824C10.3932 11.0824 10.3963 11.0824 10.3994 11.0819C10.9656 11.0639 13.4486 10.6453 14.3589 9.04586C14.3861 8.99854 14.4 8.94557 14.4 8.89106C14.4 5.80843 13.0814 2.24237 12.4046 1.61906C11.1579 0.617229 9.18669 0.447515 9.10337 0.440315C8.97171 0.429 8.84674 0.503572 8.79274 0.623915C8.79069 0.628029 8.68063 0.9474 8.57417 1.25546C8.57417 1.25546 7.73537 1.13254 7.2 1.13254C6.66463 1.13254 5.83457 1.25391 5.83457 1.25391ZM5.14286 7.81826C4.57457 7.81826 4.11429 7.13271 4.11429 6.2862C4.11429 5.43969 4.57457 4.75414 5.14286 4.75414C5.7132 4.66929 6.15909 5.43969 6.17143 6.2862C6.17143 7.13271 5.71114 7.81826 5.14286 7.81826ZM9.25714 7.81826C8.68886 7.81826 8.22857 7.12809 8.22857 6.27694C8.22857 5.4258 8.68886 4.73563 9.25714 4.73563C9.82543 4.73563 10.2857 5.4258 10.2857 6.27694C10.2857 7.12809 9.82543 7.81826 9.25714 7.81826Z" fill="#ffffff"/>
</svg>
