<svg preserveAspectRatio="none" width="15" height="15" viewBox="0 0 15 15" fill="none" xmlns="http://www.w3.org/2000/svg">
<path d="M7.2 0.411C3.2238 0.411 0 3.6348 0 7.611C0 10.9848 2.3232 13.8078 5.4552 14.589C5.4216 14.4918 5.4 14.379 5.4 14.2392V13.0086C5.1078 13.0086 4.6182 13.0086 4.4952 13.0086C4.0026 13.0086 3.5646 12.7968 3.3522 12.4032C3.1164 11.9658 3.0756 11.2968 2.4912 10.8876C2.3178 10.7514 2.4498 10.596 2.6496 10.617C3.0186 10.7214 3.3246 10.9746 3.6126 11.3502C3.8994 11.7264 4.0344 11.8116 4.5702 11.8116C4.83 11.8116 5.2188 11.7966 5.5848 11.739C5.7816 11.2392 6.1218 10.779 6.5376 10.5618C4.14 10.3152 2.9958 9.1224 2.9958 7.503C2.9958 6.8058 3.2928 6.1314 3.7974 5.5632C3.6318 4.9992 3.4236 3.849 3.861 3.411C4.9398 3.411 5.592 4.1106 5.7486 4.2996C6.2862 4.1154 6.8766 4.011 7.497 4.011C8.1186 4.011 8.7114 4.1154 9.2502 4.3008C9.405 4.113 10.0578 3.411 11.139 3.411C11.5782 3.8496 11.3676 5.0046 11.2002 5.5674C11.7018 6.1344 11.997 6.807 11.997 7.503C11.997 9.1212 10.8546 10.3134 8.4606 10.5612C9.1194 10.905 9.6 11.871 9.6 12.5988V14.2392C9.6 14.3016 9.5862 14.3466 9.579 14.4C12.3846 13.4166 14.4 10.7526 14.4 7.611C14.4 3.6348 11.1762 0.411 7.2 0.411Z" fill="#D1D7E0"/>
</svg>
