<svg preserveAspectRatio="none" width="15" height="13" viewBox="0 0 15 13" fill="none" xmlns="http://www.w3.org/2000/svg">
<path d="M14.4 2.00368C13.87 2.24067 13.3007 2.40015 12.7031 2.47208C13.3134 2.10405 13.7814 1.52135 14.0018 0.826561C13.4314 1.16726 12.7989 1.41484 12.1254 1.54867C11.5866 0.970425 10.819 0.609091 9.9694 0.609091C8.33783 0.609091 7.0153 1.94123 7.0153 3.5834C7.0153 3.81648 7.04188 4.04399 7.09173 4.2609C4.63662 4.13711 2.46009 2.95274 1.00242 1.15276C0.748771 1.59216 0.603115 2.10294 0.603115 2.64884C0.603115 3.68043 1.12426 4.59101 1.91679 5.12409C1.43274 5.10848 0.976947 4.97465 0.578747 4.75216C0.578747 4.76499 0.578747 4.77669 0.578747 4.78952C0.578747 6.23095 1.59668 7.43317 2.94856 7.70584C2.701 7.77387 2.4396 7.81011 2.16989 7.81011C1.97992 7.81011 1.79439 7.79115 1.6144 7.75714C1.99045 8.93872 3.08148 9.79912 4.37411 9.8231C3.36338 10.621 2.08958 11.0967 0.705019 11.0967C0.466874 11.0967 0.231499 11.0827 0 11.0549C1.30758 11.8985 2.85995 12.3909 4.52863 12.3909C9.96276 12.3909 12.9335 7.85862 12.9335 3.92801C12.9335 3.7992 12.9307 3.67095 12.9252 3.54325C13.5028 3.12337 14.004 2.59977 14.4 2.00368Z" fill="#ffffff"/>
</svg>
